<?xml
version="1.0" encoding="utf-8"?>
<!-- Generator: Adobe Illustrator 22.1.0, SVG Export Plug-In . SVG Version: 6.00 Build 0)  -->
<svg version="1.1" id="Layer_1" xmlns="http://www.w3.org/2000/svg" xmlns:xlink="http://www.w3.org/1999/xlink" x="0px" y="0px" viewBox="0 0 400.4 234.5" style="enable-background:new 0 0 400.4 234.5;" xml:space="preserve">
    <style type="text/css">
        .st0 {
            fill: #00683a;
        }

        .st1 {
            fill: #FFC20E;
        }
    </style>
    <g>
        <path class="st0" d="M208.6,114.9c0,4.6-3.7,8.3-8.3,8.3c-4.6,0-8.3-3.7-8.3-8.3c0-4.6,3.7-8.3,8.3-8.3
		C204.8,106.6,208.6,110.3,208.6,114.9 M385.5,148.7c-0.5-0.2-1.1-0.3-1.6-0.5c-4.5-1.4-7.3-2.4-7.3-4.5v-0.2c0-1.8,2-3,4.7-2.9
		c3.2,0,6.1,1,10.7,3.3l0,0c0.1,0,0.2,0.1,0.3,0.1c0.2,0,0.5-0.1,0.6-0.4l4.9-8.5c0-0.1,0.1-0.2,0.1-0.3c0-0.2-0.1-0.4-0.3-0.5
		c-5.1-2.7-10.3-4.3-15.9-4.3c-11.1,0-18.4,5.4-18.4,14.3v0.2c0,8.8,7,12.3,14.9,14.4c0.6,0.2,1.3,0.4,1.9,0.5
		c4.8,1.5,6.8,2.5,6.8,4.8v0.2c-0.2,1.8-1.9,2.8-5,2.7c-4.7-0.1-8.6-1.6-13.7-5l0,0c-0.1-0.1-0.2-0.1-0.3-0.1
		c-0.2,0-0.4,0.1-0.5,0.3l-5.4,8.3c-0.1,0.1-0.1,0.2-0.1,0.4c0,0.2,0.1,0.4,0.3,0.5c6.2,4.4,11.9,6.8,18.9,6.8
		c12.2,0,19.5-5.4,19.5-14.9v-0.2C400.4,154.6,393,150.9,385.5,148.7 M251.6,162.9v0.2c0,9.5-7.3,14.9-19.5,14.9
		c-7,0-12.7-2.4-18.9-6.8c-0.2-0.1-0.3-0.3-0.3-0.5c0-0.1,0.1-0.3,0.1-0.4l5.4-8.3c0.1-0.2,0.3-0.3,0.5-0.3c0.1,0,0.2,0,0.3,0.1l0,0
		c5.1,3.4,9,4.9,13.7,5c3.2,0,4.9-0.9,5-2.7v-0.2c0-2.3-2-3.3-6.8-4.8c-0.6-0.2-1.3-0.3-1.9-0.5c-7.9-2.1-14.9-5.6-14.9-14.4v-0.2
		c0-8.9,7.2-14.3,18.4-14.3c5.7,0,10.8,1.6,15.9,4.3c0.2,0.1,0.3,0.3,0.3,0.5c0,0.1,0,0.2-0.1,0.3l-4.9,8.5
		c-0.1,0.2-0.3,0.4-0.6,0.4c-0.1,0-0.2,0-0.3-0.1l0,0c-4.6-2.3-7.5-3.3-10.7-3.3c-2.7,0-4.7,1.1-4.7,2.9v0.2c0,2.1,2.8,3.1,7.3,4.5
		c0.5,0.2,1,0.3,1.6,0.5C244.2,150.7,251.6,154.4,251.6,162.9 M172.4,177.4h-12.2c-0.3,0-0.6-0.3-0.6-0.6v-44.8
		c0-0.3,0.3-0.6,0.6-0.6H172c0.3,0,0.6,0.3,0.6,0.6v5.6c3-4.3,7.6-6.8,12.5-6.8c0.7,0,1.3,0.1,1.7,0.1c0.3,0,0.5,0.3,0.5,0.6v12.1
		c0,0.2-0.1,0.3-0.2,0.5c-0.1,0.1-0.3,0.2-0.5,0.1c-0.3,0-1.1-0.1-2.1-0.1c-3.9,0-8.7,2.1-10.6,8.2c-0.6,1.8-0.9,4-0.9,6.7v17.9
		C173,177.1,172.7,177.4,172.4,177.4 M138.9,176.8v-17.9c0-2.6,0.3-4.8,0.9-6.7c1.9-6,6.7-8.2,10.6-8.2c1,0,1.8,0.1,2.1,0.1
		c0.2,0,0.4,0,0.5-0.2c0.1-0.1,0.2-0.3,0.2-0.5v-12.1c0-0.3-0.2-0.6-0.5-0.6c-0.4-0.1-1-0.1-1.7-0.1c-4.8,0-9.4,2.6-12.5,6.8v-5.6
		c0-0.3-0.3-0.6-0.6-0.6h-11.8c-0.3,0-0.6,0.3-0.6,0.6v44.8c0,0.3,0.3,0.6,0.6,0.6h12.2C138.7,177.4,138.9,177.1,138.9,176.8
		 M61.8,177.4H49.4c-0.3,0-0.6-0.3-0.6-0.6c0-14.1-1.1-30.2-1.5-35.1c-4.4,5.9-8.6,13.8-11.9,21.5c-0.1,0.2-0.3,0.4-0.6,0.4h-6.9
		c-0.2,0-0.5-0.1-0.6-0.4c-3.3-7.7-7.5-15.6-11.9-21.5c-0.4,4.9-1.5,21-1.5,35.1c0,0.3-0.3,0.6-0.6,0.6H1c-0.3,0-0.6-0.3-0.6-0.6
		c0-19.1,1.4-44.3,4.5-57.2c0.1-0.3,0.3-0.5,0.6-0.5h9.8c0.2,0,0.3,0.1,0.5,0.2c6.3,7.1,11.7,15,15.6,22.9c4-7.9,9.3-15.8,15.6-22.9
		c0.1-0.1,0.3-0.2,0.5-0.2h9.8c0.3,0,0.5,0.2,0.6,0.5c3.1,12.9,4.5,38,4.5,57.2C62.4,177.1,62.1,177.4,61.8,177.4 M356.2,176.8
		v-28.6c0-11.8-5.5-17.8-16.4-17.8c-7.2,0-11.6,3.4-14.1,6.1v-4.5c0-0.3-0.3-0.6-0.6-0.6h-11.8c-0.3,0-0.6,0.3-0.6,0.6v44.8
		c0,0.3,0.3,0.6,0.6,0.6h12.2c0.3,0,0.6-0.3,0.6-0.6v-20.6c0-2.2,0.2-3.9,0.7-5.4c1.5-4.9,5.5-7.9,10.4-7.9c4.1,0,5.6,2,5.6,7.5
		v26.4c0,0.3,0.3,0.6,0.6,0.6h12.1C355.9,177.4,356.2,177.1,356.2,176.8 M281.6,142.1c-6.6,0-11.6,5.2-11.6,12.2
		c0,7,5,12.2,11.6,12.2c6.6,0,11.5-5.2,11.5-12.2C293.1,147.4,288.2,142.1,281.6,142.1 M281.6,178.4c-14.4,0-25.2-10.3-25.2-24.1
		c0-13.7,10.8-24.1,25.1-24.1c14.4,0,25.2,10.3,25.2,24.1C306.7,168.1,295.9,178.4,281.6,178.4 M207.1,176.8v-44.8
		c0-0.3-0.3-0.6-0.6-0.6h-12.2c-0.3,0-0.6,0.3-0.6,0.6v44.8c0,0.3,0.3,0.6,0.6,0.6h12.2C206.9,177.4,207.1,177.1,207.1,176.8
		 M93.8,142.1c-6.6,0-11.6,5.2-11.6,12.2c0,7,5,12.2,11.6,12.2c6.6,0,11.5-5.2,11.5-12.2C105.3,147.4,100.3,142.1,93.8,142.1
		 M93.8,178.4c-14.4,0-25.2-10.3-25.2-24.1c0-13.7,10.8-24.1,25.1-24.1c14.4,0,25.2,10.3,25.2,24.1
		C118.9,168.1,108.1,178.4,93.8,178.4"/>
        <path class="st1" d="M239.3,112.1c-11.2,4.1-20.8-3.3-20.8-3.3c0,0,2.7-11.9,13.8-15.9c11.2-4.1,20.8,3.3,20.8,3.3
		S250.5,108.1,239.3,112.1 M268.7,56.3c0,0-10.8-5.6-21.1,0.3c-10.3,5.9-10.8,18.1-10.8,18.1c0,0,10.8,5.6,21.1-0.3
		C268.1,68.5,268.7,56.3,268.7,56.3 M222.1,83.4c-5,10.8-17.1,12.4-17.1,12.4c0,0-6.5-10.3-1.5-21c5-10.8,17.1-12.4,17.1-12.4
		S227.1,72.6,222.1,83.4 M147.9,96.2c0,0,2.7,11.9,13.8,15.9c11.2,4.1,20.8-3.3,20.8-3.3s-2.7-11.9-13.8-15.9
		C157.6,88.8,147.9,96.2,147.9,96.2 M153.2,56.7c10.3,5.9,10.8,18.1,10.8,18.1s-10.8,5.6-21.1-0.3c-10.3-5.9-10.8-18.1-10.8-18.1
		S143,50.7,153.2,56.7 M166.9,36.9c0,0-2.6,11.9,5.8,20.3C181.1,65.6,193,63,193,63s2.6-11.9-5.8-20.3
		C178.8,34.3,166.9,36.9,166.9,36.9 M210.4,18.9c0,11.9-10.2,18.4-10.2,18.4s-10.2-6.6-10.2-18.4c0-11.9,10.2-18.4,10.2-18.4
		C200.2,0.5,210.4,7.1,210.4,18.9 M230.8,45.5c0,4.8-3.9,8.6-8.6,8.6c-4.8,0-8.6-3.9-8.6-8.6s3.9-8.6,8.6-8.6
		C226.9,36.8,230.8,40.7,230.8,45.5 M192.1,80.9c0,4.8-3.9,8.6-8.6,8.6c-4.8,0-8.6-3.9-8.6-8.6c0-4.8,3.9-8.6,8.6-8.6
		C188.2,72.3,192.1,76.2,192.1,80.9"/>
    </g>
</svg>
